<svg width="173" height="41" viewBox="0 0 173 41" fill="none" xmlns="http://www.w3.org/2000/svg">
<g clip-path="url(#clip0_0_3060)">
<path fill-rule="evenodd" clip-rule="evenodd" d="M116.144 27.0468V27.978C116.144 28.0742 116.106 28.1664 116.038 28.2344C115.97 28.3023 115.877 28.3405 115.781 28.3405H111.362C111.362 28.5718 111.362 28.7718 111.362 28.9655C111.369 30.218 111.307 31.4699 111.175 32.7155C111.166 32.8056 111.124 32.8892 111.057 32.9503C110.99 33.0114 110.903 33.0457 110.812 33.0468H109.856C109.811 33.046 109.767 33.0363 109.725 33.0182C109.684 33.0002 109.646 32.9742 109.615 32.9417C109.584 32.9092 109.559 32.8708 109.543 32.8288C109.526 32.7868 109.518 32.7419 109.519 32.6968C109.655 31.4703 109.72 30.237 109.712 29.003C109.712 28.8093 109.712 28.603 109.712 28.378H105.337C105.241 28.378 105.149 28.3398 105.081 28.2719C105.013 28.2039 104.975 28.1117 104.975 28.0155V27.0468C104.974 26.9995 104.983 26.9525 105 26.9085C105.018 26.8646 105.044 26.8246 105.077 26.7908C105.11 26.7571 105.15 26.7303 105.193 26.712C105.237 26.6937 105.284 26.6843 105.331 26.6843H109.644C109.555 25.1915 109.363 23.7067 109.069 22.2405C109.054 22.1619 109.071 22.0806 109.115 22.014C109.159 21.9474 109.228 21.9009 109.306 21.8843H110.406C110.484 21.8846 110.559 21.9124 110.619 21.9627C110.678 22.0129 110.718 22.0826 110.731 22.1593C111.019 23.6556 111.207 25.1693 111.294 26.6905H115.775C115.823 26.6897 115.87 26.6983 115.914 26.7157C115.959 26.7332 115.999 26.7592 116.033 26.7923C116.067 26.8253 116.095 26.8649 116.114 26.9085C116.133 26.9522 116.143 26.9992 116.144 27.0468Z" fill="white"/>
<path d="M110.131 19.6908C108.016 14.5008 104.527 9.98492 100.038 6.6281C95.5502 3.27128 90.2325 1.20028 84.6562 0.637443C79.0799 0.074607 73.4556 1.0412 68.3871 3.43343C63.3187 5.82567 58.9975 9.5532 55.8875 14.2158C55.8562 14.262 55.8359 14.3148 55.8283 14.3701C55.8207 14.4254 55.826 14.4817 55.8438 14.5346C55.8617 14.5874 55.8912 14.6356 55.9301 14.6756C55.969 14.7157 56.0164 14.7465 56.0688 14.7658L56.875 15.0346C56.9678 15.065 57.0681 15.0644 57.1605 15.0328C57.253 15.0012 57.3327 14.9404 57.3875 14.8596C60.34 10.5135 64.4096 7.0438 69.1679 4.81563C73.9262 2.58746 79.1971 1.68327 84.4259 2.19822C89.6548 2.71317 94.6481 4.62822 98.8802 7.74179C103.112 10.8554 106.427 15.0523 108.475 19.8908C108.507 19.9677 108.56 20.0336 108.629 20.0802C108.698 20.1269 108.779 20.1523 108.862 20.1533H109.819C109.908 20.1533 109.994 20.1178 110.057 20.0545C110.121 19.9912 110.156 19.9053 110.156 19.8158C110.162 19.7744 110.162 19.7323 110.156 19.6908H110.131ZM57.0063 14.8096C56.9837 14.8154 56.96 14.8154 56.9375 14.8096H57H57.0063Z" fill="url(#paint0_radial_0_3060)"/>
<path d="M67.55 21.0658C67.55 21.0658 67.7812 20.7221 67.975 20.4408C68.4115 19.8783 68.9013 19.3593 69.4375 18.8908L69.7562 18.6283C69.7562 18.6283 69.4875 18.6283 69.3375 18.6846C68.9111 18.8105 68.5153 19.0233 68.175 19.3096C67.7375 19.6846 67.2562 20.2971 67.475 20.8408L67.55 21.0221V21.0658ZM69.9875 21.7221C70.6719 21.6717 71.3372 21.4733 71.9375 21.1408C72.5625 20.8096 73.4063 20.1596 73.3125 19.4033C73.3009 19.289 73.258 19.1801 73.1885 19.0886C73.1191 18.9971 73.0257 18.9265 72.9187 18.8846C72.8026 18.8333 72.677 18.8067 72.55 18.8067C72.423 18.8067 72.2974 18.8333 72.1812 18.8846C71.9744 18.9391 71.7765 19.0234 71.5938 19.1346C70.7717 19.65 70.0392 20.2959 69.425 21.0471C69.3062 21.2033 69.1812 21.3846 69.0875 21.5033C68.9937 21.6221 68.9812 21.6471 68.9875 21.6658C69.3158 21.7372 69.6537 21.7541 69.9875 21.7158V21.7221ZM68.225 23.0096C68.1426 23.1364 68.0675 23.2679 68 23.4033C67.956 23.4776 67.8988 23.5433 67.8312 23.5971C67.7633 23.665 67.6711 23.7032 67.575 23.7032C67.4789 23.7032 67.3867 23.665 67.3187 23.5971C67.1987 23.4844 67.1021 23.349 67.0346 23.1989C66.967 23.0487 66.9298 22.8867 66.925 22.7221C66.9375 22.5828 66.9375 22.4426 66.925 22.3033C66.8356 22.0796 66.7158 21.8692 66.5688 21.6783C66.4319 21.4029 66.3492 21.1037 66.325 20.7971C66.328 20.4007 66.4115 20.009 66.5705 19.6458C66.7295 19.2827 66.9607 18.9556 67.25 18.6846C67.8286 18.0805 68.5268 17.6037 69.3 17.2846C70.1243 16.9081 71.0518 16.8221 71.9312 17.0408C72.2473 17.153 72.5293 17.3445 72.75 17.5971C72.7823 17.6431 72.8201 17.6851 72.8625 17.7221C72.9291 17.7456 72.9984 17.7603 73.0688 17.7658C73.3552 17.8325 73.6239 17.9604 73.8562 18.1408C74.1375 18.3608 74.3322 18.6728 74.4062 19.0221C74.4479 19.3971 74.4012 19.7768 74.2699 20.1305C74.1385 20.4843 73.9263 20.8025 73.65 21.0596C72.9008 21.8778 71.9784 22.5184 70.95 22.9346C70.4031 23.1496 69.8188 23.2537 69.2312 23.2408C69.0687 23.2408 68.9 23.1846 68.7375 23.1721C68.5972 23.1485 68.4592 23.1129 68.325 23.0658C68.2875 23.0346 68.2438 23.0096 68.225 23.0221V23.0096ZM69.1687 24.6471C69.2121 24.6529 69.2543 24.6655 69.2938 24.6846C69.4628 24.7632 69.6089 24.8837 69.7183 25.0346C69.8277 25.1856 69.8967 25.362 69.9188 25.5471C70.1115 26.736 70.2222 27.9367 70.25 29.1408C70.25 29.7096 70.2875 30.2658 70.3125 30.8283C70.3578 31.347 70.3431 31.8692 70.2687 32.3846C70.2306 32.5644 70.1256 32.723 69.975 32.8283C69.7217 32.9324 69.4432 32.9585 69.175 32.9033C68.6312 32.7908 68.4562 32.4408 68.375 31.9033C68.2308 30.2857 68.2308 28.6585 68.375 27.0408C68.4393 26.3765 68.5648 25.7195 68.75 25.0783C68.8125 24.9158 68.9438 24.5971 69.1813 24.6471H69.1687ZM52.4125 26.5721C52.4125 26.5721 51.6125 26.6283 51.0563 26.6908C50.1091 26.7946 49.1737 26.9872 48.2625 27.2658C48.0375 27.3533 47.5688 27.5408 47.525 27.7783C47.5239 27.8966 47.5485 28.0138 47.5971 28.1217C47.6456 28.2296 47.717 28.3257 47.8062 28.4033C47.9062 28.5221 48.4312 29.0283 48.6125 29.1846C49.5128 29.8964 50.4973 30.4946 51.5438 30.9658C51.875 31.1033 52.425 31.2971 52.425 31.2971C52.425 31.2971 52.3875 29.7346 52.425 28.1721C52.425 27.3533 52.425 26.5471 52.425 26.5471L52.4125 26.5721ZM67.175 27.1971C67.1899 27.6403 67.1627 28.084 67.0937 28.5221C67.0324 28.8155 66.9488 29.1038 66.8437 29.3846C66.711 29.6918 66.5629 29.9922 66.4 30.2846C66.0538 30.8543 65.6334 31.3755 65.15 31.8346C63.5888 33.0182 61.7308 33.7471 59.7813 33.9408C58.4473 34.0984 57.0973 34.0584 55.775 33.8221L54.6438 33.5846C54.6518 33.7386 54.6518 33.893 54.6438 34.0471C54.6217 34.1802 54.5839 34.3103 54.5312 34.4346C54.4856 34.5271 54.4178 34.607 54.3339 34.667C54.2499 34.727 54.1524 34.7652 54.05 34.7783C53.7677 34.8602 53.4673 34.8558 53.1875 34.7658C53.0012 34.6664 52.845 34.5189 52.7351 34.3386C52.6252 34.1584 52.5656 33.9519 52.5625 33.7408C52.5 33.3783 52.4375 32.7471 52.4375 32.7471L51.875 32.4408C51.0883 32.0514 50.3375 31.5933 49.6313 31.0721C49.2375 30.7596 48.85 30.4471 48.475 30.0971C47.9815 29.6545 47.5599 29.1379 47.225 28.5658C47.0915 28.3653 47.0092 28.1351 46.9853 27.8954C46.9613 27.6557 46.9964 27.4138 47.0875 27.1908C47.3625 26.5033 48.3375 25.9846 49.0312 25.6908C49.8994 25.3403 50.7966 25.0663 51.7125 24.8721C52.0125 24.8283 52.4812 24.7471 52.5125 24.7283C52.5125 24.7283 52.55 24.0221 52.5125 23.7783C52.475 23.5346 52.6938 21.9033 52.7563 21.5783C52.8088 21.2049 52.914 20.8409 53.0688 20.4971C53.118 20.4426 53.1862 20.4089 53.2594 20.4031C53.3326 20.3973 53.4053 20.4197 53.4625 20.4658C54.1938 20.9221 54.4188 22.5096 54.475 23.3158C54.475 23.8033 54.525 24.5658 54.525 24.5658C54.525 24.5658 55.3687 24.5658 55.8875 24.5658C56.4175 24.5905 56.9455 24.6468 57.4687 24.7346C58.409 24.8765 59.3269 25.1391 60.2 25.5158C60.8138 25.7981 61.3045 26.2933 61.5812 26.9096C61.6697 27.1237 61.705 27.3559 61.6844 27.5866C61.6637 27.8173 61.5876 28.0396 61.4625 28.2346C61.3124 28.4866 61.1053 28.6998 60.8578 28.8572C60.6103 29.0146 60.3294 29.1117 60.0375 29.1408C59.689 29.1399 59.3452 29.0609 59.0312 28.9096C59.0148 28.8938 59.0017 28.8749 58.9928 28.854C58.9838 28.833 58.9792 28.8105 58.9792 28.7877C58.9792 28.7649 58.9838 28.7424 58.9928 28.7214C59.0017 28.7005 59.0148 28.6816 59.0312 28.6658C59.0312 28.6658 59.35 28.4846 59.525 28.3908C59.6092 28.3476 59.687 28.2929 59.7563 28.2283C59.9062 28.0971 60.0375 27.9533 60.025 27.7908C60.0125 27.6283 59.775 27.4471 59.5563 27.3596C58.2412 26.93 56.8794 26.6593 55.5 26.5533L54.5625 26.5158L54.6812 31.9658L55.4938 32.1096C55.6938 32.1408 56.5687 32.2158 56.8 32.2221C58.6247 32.3414 60.4524 32.0421 62.1438 31.3471C62.8526 31.0436 63.491 30.5968 64.0187 30.0346C64.3498 29.6477 64.6 29.1983 64.7546 28.7131C64.9092 28.2279 64.965 27.7167 64.9188 27.2096C64.6932 25.9658 64.1508 24.8012 63.3438 23.8283C61.6187 21.6096 58.6563 19.7783 56.0563 18.7096C53.4798 17.6174 50.7273 16.9991 47.9313 16.8846C46.8842 16.8423 45.8357 16.9199 44.8063 17.1158L44.4688 17.2096C44.3805 17.232 44.2961 17.2678 44.2187 17.3158L44.1813 17.3533C44.2105 17.3735 44.2419 17.3903 44.275 17.4033C44.3625 17.4408 44.7187 17.4596 44.9 17.4971C45.0612 17.5203 45.2069 17.6055 45.3062 17.7346C45.3408 17.7769 45.3596 17.8299 45.3596 17.8846C45.3596 17.9392 45.3408 17.9922 45.3062 18.0346C45.1187 18.2596 44.4438 18.2221 44.1375 18.1721C43.8313 18.1221 43.4375 18.0283 43.3625 17.7533C43.3143 17.4265 43.3975 17.094 43.5937 16.8283C43.7539 16.5535 43.9703 16.3157 44.2288 16.1305C44.4873 15.9452 44.7821 15.8167 45.0938 15.7533C46.128 15.4796 47.1878 15.3141 48.2562 15.2596C50.3313 15.208 52.4001 15.5081 54.375 16.1471C55.6815 16.552 56.9576 17.0491 58.1938 17.6346C59.1502 18.1029 60.0807 18.6224 60.9813 19.1908C61.2062 19.3346 62.5188 20.2971 62.725 20.4721C63.15 20.8158 63.7062 21.3158 64.1062 21.7221C64.976 22.5795 65.7227 23.5533 66.325 24.6158C66.4375 24.8408 66.525 25.0596 66.6687 25.3221C66.787 25.573 66.8873 25.8319 66.9688 26.0971C67.0063 26.2533 67.0563 26.4783 67.0625 26.4846C67.1206 26.7203 67.1561 26.9609 67.1688 27.2033L67.175 27.1971ZM76.25 27.5908H76.3375C76.9408 27.6529 77.5333 27.7937 78.1 28.0096C78.517 28.1818 78.8555 28.5025 79.05 28.9096C79.2202 29.222 79.3229 29.5667 79.3516 29.9214C79.3803 30.276 79.3342 30.6328 79.2164 30.9685C79.0986 31.3042 78.9117 31.6115 78.6677 31.8705C78.4237 32.1295 78.1281 32.3345 77.8 32.4721C77.3108 32.6985 76.7867 32.8401 76.25 32.8908C75.2136 32.9901 74.1697 32.8042 73.2312 32.3533C72.6063 32.0735 72.0748 31.6202 71.7 31.0471C71.572 30.8355 71.5097 30.5908 71.5208 30.3438C71.5319 30.0969 71.616 29.8587 71.7625 29.6596C72.2312 29.0346 73.25 28.8658 74.0125 28.8908C74.7547 28.9387 75.4888 29.073 76.2 29.2908C76.4866 29.3862 76.7613 29.5141 77.0188 29.6721C77.0563 29.7033 77.0844 29.7445 77.0999 29.7909C77.1154 29.8372 77.1176 29.887 77.1063 29.9346C76.9813 30.3221 76.0375 30.5283 75.7688 30.5596C75.0438 30.6721 74.6625 30.3971 73.8375 30.0721C73.6156 29.9792 73.3823 29.9161 73.1437 29.8846C72.7687 29.8471 72.3187 29.9533 72.2437 30.3596C72.2437 30.5721 72.4563 30.7721 72.6438 30.8533C73.0364 31.0307 73.463 31.1203 73.8938 31.1158C75.225 31.2044 76.5508 30.8768 77.6875 30.1783C77.7674 30.1328 77.8353 30.0687 77.8853 29.9915C77.9353 29.9142 77.9661 29.8261 77.975 29.7346C77.975 29.7346 77.975 29.5096 77.875 29.4846C77.875 29.4846 77.8125 29.4096 77.775 29.3721C77.6413 29.2658 77.4915 29.1814 77.3313 29.1221C76.4584 28.841 75.5531 28.673 74.6375 28.6221C73.925 28.5596 72.8062 28.4721 72.5437 28.4283C72.2629 28.3996 71.9874 28.3323 71.725 28.2283C71.5945 28.1687 71.478 28.0823 71.3832 27.9746C71.2885 27.8669 71.2175 27.7404 71.175 27.6033C71.0785 27.0925 71.1887 26.5643 71.4813 26.1346C72.1875 25.1221 73.8375 24.7408 75.0687 24.5846C76.3 24.4283 78.1938 24.4346 79.3625 25.0596C79.5438 25.1533 79.6375 25.2471 79.6 25.4408C79.5598 25.608 79.4754 25.7612 79.3555 25.8844C79.2356 26.0076 79.0847 26.0961 78.9187 26.1408C78.4643 26.2382 78.002 26.2947 77.5375 26.3096C76.0382 26.2993 74.5416 26.4353 73.0688 26.7158C72.9463 26.7422 72.8298 26.7909 72.725 26.8596C72.5125 27.0908 73.1187 27.1533 73.2438 27.1846H73.3312L76.3062 27.5346L76.25 27.5908ZM80.6562 32.8908C80.0875 32.6846 79.9562 31.7658 79.9312 31.2971C79.9054 29.5808 80.1826 27.8733 80.75 26.2533C80.8937 25.8471 81.1063 25.1846 81.5563 25.2221C81.706 25.2505 81.8475 25.3118 81.9707 25.4015C82.0939 25.4912 82.1957 25.6071 82.2688 25.7408C82.75 26.4221 83.225 27.1158 83.6938 27.8158C84.1625 28.5158 84.5438 29.1533 84.9438 29.7596C84.9852 29.832 85.038 29.8974 85.1 29.9533C85.175 30.0158 85.2437 30.0158 85.2687 29.9533C85.2854 29.639 85.2854 29.3239 85.2687 29.0096C85.2375 28.7658 85.225 28.5721 85.1937 28.3846C85.0921 27.692 84.9523 27.0055 84.775 26.3283C84.6 25.7033 84.3937 24.9971 84.2437 24.3658C84.1867 24.1622 84.1552 23.9522 84.15 23.7408C84.1392 23.6808 84.1459 23.619 84.1692 23.5627C84.1925 23.5064 84.2314 23.4579 84.2814 23.4231C84.3314 23.3882 84.3903 23.3684 84.4512 23.366C84.5121 23.3636 84.5724 23.3787 84.625 23.4096C85.2062 23.6158 85.975 24.8783 86.2 25.2846C86.275 25.4283 86.575 26.1783 86.65 26.3908C86.8877 27.1013 87.0388 27.8379 87.1 28.5846C87.189 29.4719 87.0823 30.3679 86.7875 31.2096C86.6497 31.5206 86.457 31.8043 86.2187 32.0471C86.0385 32.2217 85.8121 32.341 85.5662 32.3908C85.3203 32.4407 85.0652 32.419 84.8312 32.3283C84.2684 31.7828 83.7977 31.1496 83.4375 30.4533C82.9813 29.6596 82.1875 28.1033 82.0812 27.9533C82.0498 27.9104 82.0063 27.8778 81.9563 27.8596C81.9125 27.8596 81.8937 27.9408 81.8812 28.0033C81.8 28.4596 81.75 30.5721 81.75 30.6346C81.7478 31.1894 81.7018 31.7432 81.6125 32.2908C81.55 32.5721 81.4812 32.8033 81.2187 32.9158C81.1312 32.951 81.0367 32.966 80.9426 32.9595C80.8484 32.953 80.7569 32.9252 80.675 32.8783L80.6562 32.8908ZM88.5188 32.6158C88.4371 32.5457 88.3599 32.4705 88.2875 32.3908C88.1939 32.2564 88.1084 32.1166 88.0313 31.9721C87.9938 31.8908 87.9688 31.8346 87.9438 31.7658C87.7728 31.2927 87.7446 30.7798 87.8625 30.2908C87.9715 29.8893 88.1159 29.4982 88.2938 29.1221C88.3001 29.0869 88.3001 29.051 88.2938 29.0158C88.2938 28.9221 88.1562 28.3158 88.15 28.1158C88.15 27.8158 88.3687 27.6033 88.775 27.5658H88.8562C89.0125 27.5283 89.1188 27.2283 89.2 26.9908L89.5 26.1471C89.2437 26.0846 88.9938 26.0158 88.7438 25.9346C88.4758 25.8462 88.252 25.6583 88.1188 25.4096C87.9625 25.0908 88.0688 24.9158 88.4 24.8158C88.5187 24.7721 89.475 24.5908 89.775 24.5471L90.8687 24.4033C91.1812 24.3658 92.6062 24.1971 93.0625 24.2096C93.3765 24.2099 93.6849 24.2926 93.9569 24.4494C94.2289 24.6062 94.455 24.8317 94.6125 25.1033C94.8313 25.4158 94.9813 25.7908 94.65 25.9908C94.1437 26.2971 92.5062 26.3221 92.2062 26.3221H91.0625L90.7312 27.4408H92.5625C92.6986 27.4385 92.8346 27.449 92.9688 27.4721C93.3062 27.5471 93.425 27.8033 93.4375 28.1783C93.45 28.5533 93.375 28.8033 93.025 28.8658C92.85 28.8971 90.8312 28.9096 90.525 28.9408L90.175 28.9846C90.175 28.9846 90.0313 29.3658 89.9063 29.7533C89.7813 30.1408 89.6688 30.5596 89.6688 30.5596H89.8563C89.9886 30.5574 90.1204 30.5427 90.25 30.5158C90.875 30.4096 91.7812 30.2721 92.5312 30.1533C92.9375 30.0908 93.1562 30.0596 93.35 30.3283C93.5306 30.5252 93.6348 30.7801 93.6437 31.0471C93.6437 31.3158 93.45 31.4908 93.2 31.6721C92.2779 32.3646 91.2085 32.8351 90.075 33.0471C89.74 33.0924 89.3991 33.0559 89.0812 32.9408C88.9569 32.8972 88.8375 32.8407 88.725 32.7721C88.725 32.7721 88.575 32.6846 88.5188 32.6408V32.6158ZM101.25 27.1346C100.687 27.6736 100.182 28.2707 99.7437 28.9158C99.3125 29.5408 98.9125 30.2283 98.4937 30.7908C98.3757 30.9768 98.2672 31.1688 98.1688 31.3658C98.3419 31.4017 98.5206 31.4017 98.6938 31.3658C99.3073 31.2249 99.8843 30.9566 100.387 30.5783C101.005 30.0864 101.444 29.4059 101.637 28.6408C101.767 28.1667 101.725 27.6619 101.519 27.2158C101.486 27.1762 101.439 27.1508 101.388 27.1449C101.336 27.1391 101.285 27.1533 101.244 27.1846L101.25 27.1346ZM97.125 33.3846C97.125 33.3846 96.9625 33.8658 96.8437 34.2471C96.6312 34.8721 96.175 36.6596 96.0625 37.2033C95.9062 38.0158 95.4375 40.1471 95.4375 40.1908C95.4115 40.2472 95.3675 40.2933 95.3125 40.3221C95.125 40.4283 95.05 40.3908 94.8188 40.2721C94.5164 40.1251 94.2514 39.9114 94.0438 39.6471C93.6 39.0721 93.7063 37.9846 93.7938 37.3471C94.0241 35.4811 94.5165 33.6569 95.2563 31.9283C95.2623 31.9156 95.2655 31.9018 95.2655 31.8877C95.2655 31.8736 95.2623 31.8598 95.2563 31.8471C94.9945 31.2872 94.8559 30.6776 94.85 30.0596C94.85 28.3221 95.85 26.6096 96.9687 25.2283C97.05 25.1221 97.5937 24.4658 97.85 24.4783C98.1062 24.4908 98.1437 24.7846 98.1063 25.0283C97.88 25.8493 97.5143 26.6251 97.025 27.3221C96.6983 27.8724 96.4501 28.4656 96.2875 29.0846C96.2323 29.3065 96.1926 29.5321 96.1687 29.7596C96.1687 29.9471 96.2187 30.1846 96.2187 30.1846C96.2187 30.1846 96.925 29.1908 97.3937 28.5846C97.6437 28.2533 97.8312 28.0283 98.0187 27.7908C98.4313 27.3346 98.8625 26.8908 99.2687 26.4596C99.6293 26.0734 100.052 25.7503 100.519 25.5033C100.703 25.3773 100.921 25.3099 101.144 25.3099C101.367 25.3099 101.585 25.3773 101.769 25.5033C102.078 25.7623 102.33 26.0838 102.507 26.4468C102.683 26.8098 102.781 27.2061 102.794 27.6096C102.874 28.5248 102.706 29.4448 102.306 30.2721C101.852 31.149 101.17 31.8873 100.331 32.4096C99.466 33.0184 98.439 33.3556 97.3812 33.3783H97.0812L97.125 33.3846Z" fill="white"/>
<path fill-rule="evenodd" clip-rule="evenodd" d="M154.375 26.8469C154.375 26.8469 154.338 27.1844 154.281 27.5594C154.224 27.9539 154.013 28.3098 153.695 28.5497C153.376 28.7896 152.976 28.8942 152.581 28.8406H148.925L148.512 32.1094H145.6L146.25 26.8469H154.375ZM137.194 26.8469H143.594C144.506 26.8469 145.669 27.2406 145.437 28.8906C145.376 29.5674 145.261 30.2383 145.094 30.8969C144.606 32.0594 143.156 32.0969 142.95 32.1094H136.506L136.794 29.8281H142.463L142.587 28.8406H138.644C137.656 28.8406 136.956 28.2219 137.169 26.8469H137.194ZM136.606 26.8469L136.356 28.8406H131.475L131.35 29.8281H136.231L135.938 32.1094H128.125L128.794 26.8469H136.606ZM154.969 26.8469H157.881L157.219 32.1094H154.3L154.969 26.8469ZM160.5 26.8469H163.412L162.75 32.1094H159.812L160.475 26.8469H160.5ZM129.25 23.5156H137.044L136.737 25.9281H128.906L129.213 23.5156H129.25ZM152.625 23.5156C154.25 23.5156 154.687 24.4469 154.556 25.4781C154.556 25.6594 154.506 25.8719 154.5 25.9219H137.288C137.288 25.9219 137.331 25.5906 137.375 25.2156C137.494 24.2281 138.312 23.5594 139.556 23.5156H152.587H152.625ZM161.75 23.5156C162.756 23.5156 163.8 23.9781 163.594 25.5594C163.556 25.8406 163.55 25.9281 163.55 25.9281H155.056L155.363 23.5156H161.75Z" fill="white"/>
<path fill-rule="evenodd" clip-rule="evenodd" d="M170.125 26.7282L170.4 24.5845H168.081L167.812 26.7282H165.625L165.362 28.8595H167.537L167.275 31.0157H169.587L169.869 28.8345H172.05L172.319 26.7032L170.125 26.7282Z" fill="#F9B300"/>
<path d="M18.8438 32.4031H21.2875V21.6406H18.8375V32.4031H18.8438ZM14.5375 29.3344C14.5428 29.5083 14.4808 29.6775 14.3643 29.8068C14.2479 29.936 14.086 30.0153 13.9125 30.0281H12.4625C12.284 30.0216 12.1152 29.9452 11.9925 29.8155C11.8697 29.6857 11.8029 29.513 11.8062 29.3344V24.9969H9.375V29.5469C9.375 31.4219 10.5 32.3906 12.15 32.3906H14.5438C16.0688 32.3906 16.9937 31.2219 16.9937 29.5469V24.9969H14.525C14.525 24.9969 14.5375 29.1969 14.5375 29.3344ZM28.2875 24.9969V29.3344C28.2913 29.5079 28.2287 29.6762 28.1126 29.8052C27.9964 29.9341 27.8354 30.0138 27.6625 30.0281H26.25C26.0771 30.0138 25.9161 29.9341 25.7999 29.8052C25.6838 29.6762 25.6212 29.5079 25.625 29.3344V24.9969H23.125V29.5469C23.125 31.4219 24.25 32.3906 25.9062 32.3906H28.2938C29.8188 32.3906 30.7437 31.2219 30.7437 29.5469V24.9969H28.2875ZM4.81875 24.9969H3.275C2.99207 24.9819 2.70956 25.0333 2.45 25.1469V21.6406H0V32.3906H2.4375V28.0656C2.43373 27.8921 2.4963 27.7238 2.61245 27.5948C2.72859 27.4659 2.88956 27.3862 3.0625 27.3719H4.5125C4.68544 27.3862 4.84641 27.4659 4.96255 27.5948C5.0787 27.7238 5.14127 27.8921 5.1375 28.0656V32.4031H7.5875V27.7156C7.5875 25.7531 6.3375 24.9969 4.8125 24.9969H4.81875Z" fill="#1CE783"/>
</g>
<defs>
<radialGradient id="paint0_radial_0_3060" cx="0" cy="0" r="1" gradientUnits="userSpaceOnUse" gradientTransform="translate(109.468 20.0061) scale(53.3192 53.3193)">
<stop offset="0.06" stop-color="white"/>
<stop offset="0.08" stop-color="#CBFFFF"/>
<stop offset="0.1" stop-color="#96FFFF"/>
<stop offset="0.12" stop-color="#68FFFF"/>
<stop offset="0.14" stop-color="#43FFFF"/>
<stop offset="0.17" stop-color="#25FFFF"/>
<stop offset="0.19" stop-color="#11FFFF"/>
<stop offset="0.21" stop-color="#04FFFF"/>
<stop offset="0.23" stop-color="#00FFFF"/>
<stop offset="1" stop-color="#0000FF" stop-opacity="0"/>
</radialGradient>
<clipPath id="clip0_0_3060">
<rect width="172.5" height="40" fill="white" transform="translate(0 0.390625)"/>
</clipPath>
</defs>
</svg>
